<svg width="500" height="500" viewBox="0 0 500 500" fill="none" xmlns="http://www.w3.org/2000/svg">
<g clip-path="url(#clip0_518_144)">
<path d="M289.623 449.939L289.628 449.63C289.672 446.894 290.678 444.26 291.708 441.788L291.765 441.66C292.089 440.934 292.42 440.192 292.717 439.463C293.09 438.55 293.438 437.584 293.75 436.593C293.678 436.114 293.584 435.625 293.469 435.135C293.381 434.719 293.26 434.17 293.102 433.621C292.819 432.624 292.446 431.618 291.989 430.625C291.534 429.638 290.992 428.651 290.375 427.69C289.635 426.532 289.016 425.663 288.369 424.87C286.977 423.149 285.365 421.559 283.658 419.875L282.944 419.17C282.561 418.791 282.176 418.409 281.805 418.026C281.362 417.565 280.923 417.098 280.493 416.624C279.533 415.563 278.737 414.59 278.058 413.65C276.951 412.116 275.978 410.416 275.165 408.592C274.46 406.922 273.893 405.145 273.434 403.161C272.46 399.165 272.375 395.156 272.421 391.758L272.454 390.326C272.473 389.94 272.5 389.556 272.528 389.171L272.547 388.906C272.616 387.962 272.696 387.018 272.781 386.069L273.097 382.702C273.169 381.935 273.244 381.142 273.349 380.373C273.808 376.791 274.139 372.942 274.334 368.934L274.4 367.566L274.915 368.835C275.443 370.134 276.064 371.482 276.766 372.842C277.354 373.971 278.062 375.203 278.995 376.718C280.591 379.301 282.32 381.791 283.955 384.119C284.476 384.856 285.002 385.592 285.528 386.326C286.701 387.965 287.914 389.66 289.016 391.317C289.882 392.614 290.625 393.79 291.299 394.932L292.336 396.729C292.688 397.355 293.02 397.976 293.322 398.574C294.352 400.613 295.196 402.703 295.828 404.778C296.516 406.864 297.018 408.948 297.321 410.976C297.585 412.936 297.833 415.035 297.861 417.104C297.873 417.79 297.864 418.485 297.838 419.181C299.725 410.836 301.957 402.742 304.492 395.057L304.252 395.216L304.919 393.756L305.087 393.235L305.09 393.109C305.113 392.202 305.135 391.345 305.058 390.449C304.986 389.505 304.841 388.537 304.628 387.57C304.415 386.603 304.13 385.619 303.781 384.645C303.364 383.474 302.997 382.577 302.591 381.735C301.638 379.738 300.437 377.816 299.164 375.781L297.826 373.619C297.498 373.069 297.183 372.518 296.876 371.962C296.191 370.721 295.64 369.607 295.2 368.538C294.48 366.81 293.928 364.956 293.558 363.025C293.254 361.322 293.107 359.488 293.108 357.418C293.111 356.508 293.147 355.559 293.216 354.594C293.25 354.123 293.291 353.653 293.341 353.174C293.402 352.711 293.469 352.248 293.544 351.786C293.822 350.052 294.198 348.252 294.693 346.287C295.074 344.683 295.592 343.108 296.093 341.585L296.804 339.452C297.229 338.182 297.668 336.868 298.131 335.584C298.915 333.454 299.488 331.814 299.989 330.264C300.184 329.673 300.365 329.074 300.547 328.475C300.641 328.166 300.735 327.856 300.831 327.545C301.125 326.623 301.395 325.706 301.635 324.82L302.001 323.464L302.225 324.85C302.447 326.228 302.75 327.671 303.125 329.138C303.487 330.481 303.914 331.873 304.431 333.395C305.401 336.246 306.522 339.047 307.588 341.669C307.862 342.332 308.139 342.993 308.414 343.653C309.257 345.67 310.129 347.756 310.891 349.775C311.441 351.226 311.897 352.53 312.287 353.761C312.67 354.966 313.107 356.369 313.441 357.757C313.993 359.992 314.342 362.281 314.506 364.752C314.641 366.444 314.658 368.136 314.557 369.803L316.66 365.431L319.665 359.728C319.931 359.204 320.228 358.69 320.516 358.194L323.706 352.682C324.23 349.793 324.101 346.616 323.323 343.236C322.849 341.076 322.113 338.934 321.334 336.666L321.143 336.111C320.763 335.003 320.327 333.715 319.949 332.443C319.584 331.229 319.298 330.016 319.075 328.73C318.764 326.893 318.644 324.972 318.719 323.02C318.767 321.889 318.845 320.992 318.965 320.197C319.1 319.302 319.279 318.378 319.496 317.452C319.897 315.737 320.45 313.929 321.143 312.073C321.735 310.569 322.474 308.958 323.468 307.005C324.678 304.56 326.121 302.217 327.515 299.951C328.038 299.102 328.562 298.25 329.076 297.391C329.383 296.87 329.702 296.365 330.022 295.86C330.199 295.581 330.376 295.301 330.551 295.019C331.04 294.233 331.523 293.441 331.995 292.638C332.492 291.792 332.943 290.995 333.373 290.202L335.319 286.539L335.266 287.862C335.01 294.268 336.171 300.743 337.294 307.005C338.249 312.336 339.152 317.372 339.232 322.311C339.248 323.314 339.226 324.317 339.166 325.292C339.104 326.284 338.998 327.283 338.904 328.168C338.739 329.588 338.492 330.992 338.167 332.358L340.96 329.028L344.209 325.481L343.983 325.516L344.769 324.83L345.912 323.632L346.866 322.673C348.122 319.845 348.753 316.333 348.691 312.516C348.636 310.272 348.314 307.998 347.974 305.591L347.901 305.074C347.587 302.773 347.255 300.098 347.299 297.473C347.339 295.513 347.577 293.602 348.007 291.792C348.43 290.065 349.037 288.288 349.81 286.508C350.172 285.675 350.578 284.824 351.015 283.98C351.455 283.127 351.946 282.337 352.421 281.571C353.344 280.104 354.382 278.613 355.594 277.016C356.083 276.355 356.613 275.727 357.125 275.118L357.337 274.866C357.93 274.166 358.531 273.472 359.138 272.777C359.467 272.406 359.794 272.033 360.122 271.658C360.998 270.658 361.904 269.625 362.825 268.651C364.323 267.027 365.458 265.753 366.504 264.519L368.295 262.383C368.904 261.65 369.486 260.915 370.028 260.199L370.867 259.088L370.563 260.446C369.195 266.567 369.176 273.054 369.157 279.327C369.141 284.841 369.125 290.049 368.262 294.975C367.833 297.564 367.155 300.041 366.192 302.542C365.511 304.395 364.678 306.185 363.711 307.881C364.831 307.056 365.964 306.232 367.093 305.42L368.257 304.59L370.506 303.11L370.042 303.204L371.663 302.278C372.546 301.774 373.425 301.148 374.281 300.411C375.103 299.738 375.872 298.973 376.567 298.136C377.259 297.303 377.892 296.382 378.445 295.403C378.969 294.451 379.512 293.417 379.938 292.297C380.688 290.371 381.184 288.3 381.708 286.108L381.839 285.561C382.356 283.525 382.999 280.991 383.966 278.721C384.353 277.818 384.747 277.023 385.173 276.289C385.618 275.542 386.112 274.804 386.643 274.094C387.642 272.756 388.824 271.445 390.16 270.193C391.322 269.141 392.637 268.126 394.299 266.999C394.996 266.529 395.737 266.056 396.502 265.593C397.145 265.203 397.817 264.854 398.465 264.516L398.792 264.345C400.465 263.486 402.16 262.692 403.453 262.094C404.355 261.688 405.267 261.304 406.179 260.921C406.854 260.637 407.529 260.353 408.197 260.061C408.824 259.78 409.453 259.504 410.081 259.229C412.545 258.148 415.093 257.029 417.47 255.645L418.58 254.999L417.875 256.072C416.542 258.099 415.279 260.432 414.016 263.201C413.018 265.424 412.134 267.758 411.28 270.015L409.537 274.624C408.994 276.081 408.529 277.266 408.074 278.355C407.023 280.876 405.903 283.123 404.65 285.229C403.861 286.525 402.982 287.748 402.036 288.868C401.565 289.413 401.092 289.959 400.604 290.487C400.118 291.008 399.606 291.516 399.082 291.997C398.128 292.877 397.044 293.735 395.772 294.615C394.654 295.423 393.445 296.173 392.176 296.846C389.251 298.338 386.719 299.374 384.207 300.106L383.469 300.316C382.323 300.643 381.137 300.982 379.931 301.252C378.528 301.574 377.047 301.851 375.529 302.075C369.699 305.719 364.801 309.196 360.561 312.703C360.085 313.338 359.576 313.949 359.059 314.543C360.122 313.956 361.192 313.413 362.221 312.897C363.051 312.487 363.875 312.098 364.676 311.738C365.462 311.41 366.293 311.085 367.22 310.746C369.253 310.004 371.957 309.103 374.844 308.725C377.892 308.3 380.488 308.31 383.012 308.756C384.415 308.992 385.901 309.361 387.43 309.854C388.98 310.359 390.412 310.911 391.807 311.543C394.685 312.83 397.508 314.348 400.388 315.922L404.55 318.202C406.125 319.055 407.415 319.719 408.608 320.291C410.043 320.978 411.323 321.524 412.526 321.961C413.923 322.486 415.171 322.859 416.341 323.101L418.986 323.648L416.285 323.699C415.687 323.711 415.06 323.745 414.421 323.802C413.748 323.858 413.157 323.937 412.611 324.043C411.552 324.235 410.422 324.489 409.059 324.842L407.296 325.314L405.555 325.863C404.441 326.213 403.241 326.583 402.005 326.914L399.696 327.536C398.912 327.737 398.112 327.922 397.319 328.084C396.51 328.25 395.683 328.399 394.869 328.524C393.89 328.698 393.124 328.819 392.386 328.915C390.829 329.125 389.122 329.263 387.171 329.336C385.379 329.429 383.532 329.425 381.681 329.324C380.878 329.281 380.042 329.211 379.201 329.118C378.389 329.041 377.562 328.941 376.744 328.821C375.163 328.59 373.528 328.278 371.744 327.866C368.588 327.121 365.258 326.21 361.266 324.995C356.723 323.589 351.975 324.291 347.383 324.969L347.166 325.001L343.148 329.368C342.715 329.839 342.255 330.342 341.827 330.867L337.957 335.493C337.679 335.823 337.418 336.168 337.156 336.511C337.025 336.684 336.893 336.857 336.76 337.029C335.971 339.276 334.922 341.377 333.889 343.242C334.104 343.055 334.319 342.868 334.536 342.681C335.262 342.083 336.048 341.492 336.681 341.016C337.964 340.068 339.497 338.963 341.149 337.955C343.875 336.369 346.059 335.324 348.235 334.568C350.988 333.661 353.603 333.186 356.237 333.114C358.944 333.088 361.934 333.476 365.379 334.302C366.126 334.481 366.899 334.681 367.677 334.897C368.452 335.119 369.225 335.352 369.996 335.594C371.565 336.085 373.126 336.609 374.578 337.101L375.291 337.343C378.098 338.296 380.749 339.196 383.386 339.96C384.92 340.398 386.274 340.723 387.525 340.954C388.776 341.187 390.053 341.335 391.427 341.406L394.198 341.549L391.461 342.005C390.251 342.207 389.167 342.565 387.978 342.976C386.973 343.334 385.913 343.763 384.655 344.32L378.207 347.56C376.787 348.273 375.32 348.924 373.848 349.495C372.331 350.1 370.836 350.684 369.222 351.176C368.418 351.426 367.586 351.661 366.759 351.872C365.895 352.117 365.074 352.329 364.247 352.517C362.567 352.903 360.755 353.22 358.867 353.457C355.921 353.885 352.751 354.012 348.892 353.855C345.645 353.757 342.228 353.453 338.095 353.025C337.469 352.961 336.858 352.93 336.28 352.933C335.705 352.939 335.104 352.974 334.492 353.035C333.367 353.15 332.203 353.355 330.933 353.661C329.882 353.915 328.736 354.245 327.428 354.669C326.601 354.935 325.803 355.238 325.031 355.532C324.75 355.639 324.47 355.745 324.19 355.849C323.957 356.166 323.719 356.465 323.507 356.703L322.09 359.16C321.816 359.632 321.533 360.12 321.283 360.616L318.275 366.327L315.459 372.187C315.173 372.759 314.912 373.361 314.66 373.943L313.713 376.114C313.491 377.169 313.216 378.234 312.896 379.278L312.706 379.908C312.664 380.05 312.621 380.192 312.577 380.335C312.765 380.066 312.957 379.798 313.153 379.534C313.808 378.674 314.467 377.84 315.113 377.055C315.796 376.224 316.485 375.419 317.162 374.661L317.697 374.07L318.256 373.508C318.631 373.135 319.011 372.766 319.395 372.401C321.193 370.71 323.184 368.952 325.553 367.564C326.727 366.855 327.921 366.236 329.105 365.724C329.691 365.474 330.326 365.213 331.008 364.993C331.676 364.78 332.358 364.593 333.036 364.435C335.747 363.811 338.734 363.553 342.168 363.645C345.412 363.749 348.665 364.109 351.719 364.47L356.391 365.036C358.171 365.251 359.602 365.396 360.893 365.493C362.469 365.611 363.84 365.658 365.088 365.635C366.626 365.614 367.9 365.518 368.984 365.341L371.682 364.903L369.145 365.92C365.669 367.314 362.978 369.49 360.128 371.794C359.287 372.474 358.417 373.177 357.532 373.853L357.392 373.961C356.24 374.852 355.049 375.774 353.764 376.622C353.098 377.07 352.416 377.493 351.724 377.919C351.051 378.357 350.347 378.788 349.634 379.2C348.142 380.071 346.492 380.872 345.077 381.54C343.494 382.302 341.815 383.004 340.089 383.622C334.079 385.839 327.603 386.755 319.76 387.725C315.031 388.267 310.994 390.843 307.092 393.334L306.968 393.413C304.404 400.901 302.111 408.935 300.143 417.333C300.324 416.966 300.505 416.604 300.687 416.249C301.27 415.114 301.903 413.907 302.671 412.744C303.431 411.556 304.163 410.496 304.909 409.505C305.315 408.966 305.727 408.446 306.133 407.961C306.54 407.469 307.001 407 307.447 406.546L307.504 406.489C308.485 405.506 309.505 404.609 310.537 403.823C311.835 402.842 312.915 402.156 314.037 401.597C316.462 400.362 319.309 399.385 322.744 398.611C325.788 397.947 328.975 397.523 332.245 397.111L336.908 396.528C338.696 396.308 340.128 396.106 341.414 395.89C344.445 395.388 347.012 394.702 349.26 393.791L351.622 392.835L349.549 394.317C349.067 394.661 348.583 395.034 348.116 395.42C347.719 395.772 347.312 396.16 346.837 396.638C346.1 397.382 345.344 398.214 344.458 399.255L343.894 399.927L342.297 402.043C341.658 402.896 340.956 403.799 340.094 404.875C338.506 406.994 336.47 409.259 333.681 412.009C331.51 414.024 328.836 416.387 325.46 418.629L325.329 418.714C324.683 419.137 324.053 419.549 323.411 419.95C322.743 420.364 322.029 420.782 321.287 421.192C319.898 421.96 318.412 422.704 316.743 423.467L314.367 424.533C313.569 424.885 312.753 425.232 311.922 425.578C310.201 426.294 308.421 426.999 306.754 427.653C305.615 428.102 304.53 428.66 303.53 429.312C302.59 429.93 301.654 430.649 300.669 431.513C299.856 432.224 298.994 433.05 298.033 434.038C297.608 434.473 297.191 434.913 296.786 435.346L295.664 436.616C295.297 437.82 294.903 438.929 294.461 440.004C294.156 440.748 293.818 441.501 293.488 442.236L293.437 442.349C292.383 444.923 291.507 447.249 291.473 449.637L291.469 449.933L289.623 449.939Z" fill="#EDA164"/>
<path d="M154.064 148.24H114.218C111.585 148.24 109.451 150.374 109.451 153.007V180.527C109.451 183.16 111.585 185.294 114.218 185.294H129.698L134.141 192.989L138.584 185.294H154.064C156.697 185.294 158.831 183.16 158.831 180.527V153.007C158.832 150.374 156.697 148.24 154.064 148.24Z" fill="#F9F3E8"/>
<path d="M147.203 156.042C143.596 152.435 137.749 152.435 134.142 156.042C130.535 152.435 124.688 152.435 121.081 156.042C117.474 159.649 117.474 165.496 121.081 169.103L134.142 182.164L147.203 169.103C150.809 165.497 150.809 159.649 147.203 156.042Z" fill="#E1745F"/>
<path d="M359.494 222.064L335.88 215.737L342.207 239.351L347.147 234.412L357.38 244.645L364.788 237.236L354.555 227.003L359.494 222.064Z" fill="#F9F3E8"/>
<path d="M190.267 344.367C194.839 347.45 197.713 352.531 200.185 357.693C200.302 357.934 200.418 358.175 200.535 358.417C201.04 359.492 201.537 360.587 202.006 361.7C204.524 367.661 206.312 374.19 205.494 381.782C204.882 387.409 201.968 395.358 197.287 401.557C196.654 402.406 195.98 403.216 195.271 403.992C193.252 406.207 190.966 408.067 188.444 409.326C178.389 414.348 164.766 413.412 156.319 412.304C153.328 411.913 150.374 411.252 147.768 410.154C146.604 409.671 145.502 409.103 144.508 408.42C142.201 406.866 140.408 404.77 139.466 401.961C139.098 400.872 138.873 399.715 138.762 398.507C138.67 397.694 138.642 396.855 138.652 395.995C138.683 391.717 139.668 386.981 140.285 382.39C140.406 381.504 140.508 380.629 140.59 379.765C140.781 377.815 140.853 375.91 140.707 374.103C140.549 372.096 140.071 370.163 138.713 369.075C136.731 367.482 133.341 368.017 130.279 368.298C124.123 368.873 118.171 367.859 113.737 365.198C112.55 364.476 111.459 363.643 110.519 362.691C107.922 360.078 106.332 356.565 106.285 352.126C106.278 352.032 106.278 351.931 106.278 351.83C106.283 351.037 106.331 350.227 106.417 349.409C106.932 344.662 108.745 339.51 110.09 334.537C110.334 333.623 110.566 332.712 110.771 331.819C111.426 328.917 111.803 326.113 111.534 323.537C111.523 323.367 111.504 323.204 111.481 323.037C111.37 322.264 111.211 321.533 110.997 320.837C109.757 316.815 106.829 314.105 103.572 311.62C102.476 310.782 101.352 309.974 100.236 309.146C97.599 307.191 95.043 305.14 93.237 302.452C92.562 301.434 92.004 300.323 91.575 299.117C91.275 298.31 91.035 297.472 90.854 296.59C89.952 292.324 90.325 287.312 91.899 282.209C92.18 281.287 92.503 280.361 92.86 279.439C93.582 277.587 94.458 275.736 95.492 273.919C96.286 272.498 97.174 271.108 98.152 269.746C98.244 269.993 98.343 270.232 98.435 270.479C98.678 271.102 98.927 271.73 99.171 272.353C99.58 273.409 99.994 274.469 100.41 275.517C101.169 277.457 101.927 279.41 102.686 281.349C102.932 281.989 103.191 282.627 103.447 283.277C103.962 284.535 104.493 285.794 105.086 287.01C107.332 291.712 110.265 295.862 115.078 297.55C115.566 297.724 116.071 297.87 116.592 297.988C116.898 298.061 117.212 298.113 117.527 298.166C122.436 298.944 128.355 297.476 134.127 296.202C134.997 296.014 135.868 295.826 136.731 295.645C141.744 294.636 146.514 294.063 150.278 295.58C150.652 295.732 151.011 295.9 151.367 296.092C151.802 296.332 152.208 296.601 152.588 296.889C160.776 303.161 155.676 320.565 159.451 331.027C159.868 332.206 160.405 333.297 161.094 334.271C161.436 334.77 161.824 335.241 162.249 335.673C163.232 336.68 164.386 337.457 165.664 338.062C166.353 338.398 167.081 338.683 167.847 338.918C170.323 339.719 173.096 340.106 175.91 340.459C176.705 340.562 177.503 340.653 178.291 340.764C181.606 341.187 184.869 341.706 187.653 342.93C187.828 343.009 188.002 343.088 188.17 343.175C188.907 343.525 189.607 343.929 190.267 344.367Z" fill="#6369D3"/>
<path d="M179.894 388.728L179.802 389.25C182.886 392.181 186.23 394.837 189.808 397.207C193.086 384.367 196.665 371.393 200.534 358.418C201.039 359.493 201.536 360.588 202.005 361.701C198.412 373.952 195.064 386.188 191.997 398.3L191.926 398.566C193.659 399.633 195.453 400.626 197.287 401.557C196.654 402.406 195.98 403.216 195.271 403.992C193.017 402.836 190.828 401.582 188.72 400.233L147.769 410.154C146.605 409.671 145.503 409.103 144.509 408.42L185.935 398.384C182.65 396.06 179.574 393.485 176.72 390.686L138.763 398.507C138.671 397.694 138.643 396.855 138.653 395.995L174.677 388.571C171.886 385.585 169.335 382.377 167.055 378.934L140.287 382.39C140.408 381.504 140.51 380.629 140.592 379.765L165.532 376.545C164.34 374.585 163.203 372.577 162.176 370.484C160.686 367.443 159.348 364.243 158.077 361.062C143.179 363.034 128.3 364.429 113.739 365.198C112.552 364.476 111.461 363.643 110.521 362.691C125.781 362.006 141.428 360.63 157.103 358.599C157.071 358.511 157.035 358.418 156.998 358.325C156.153 356.202 155.295 354.052 154.398 351.924L116.965 352.149C113.442 352.167 109.853 352.194 106.287 352.126C106.28 352.032 106.28 351.931 106.28 351.83C106.285 351.037 106.333 350.227 106.419 349.409C110.277 349.493 114.165 349.474 117.984 349.448L153.233 349.236C151.5 345.369 149.559 341.64 147.171 338.341C146.788 337.803 146.387 337.276 145.975 336.769C134.148 335.843 122.112 335.095 110.091 334.536C110.335 333.622 110.567 332.711 110.772 331.818C121.683 332.323 132.608 332.987 143.384 333.785C139.723 329.915 135.455 326.613 131.061 323.525L111.534 323.535C111.523 323.365 111.504 323.202 111.481 323.035C111.37 322.262 111.211 321.531 110.997 320.835L127.122 320.827C126.458 320.384 125.798 319.946 125.146 319.5C121.525 317.074 117.801 314.565 114.319 311.851L114.069 311.831C110.654 311.574 107.147 311.505 103.572 311.617C102.476 310.779 101.352 309.971 100.236 309.143C103.795 308.885 107.304 308.811 110.73 308.905C107.867 306.359 105.028 303.342 102.582 299.842L100.952 299.526C98.005 298.959 94.864 298.817 91.575 299.115C91.275 298.308 91.035 297.47 90.854 296.588C94.219 296.16 97.446 296.151 100.486 296.56C98.215 292.603 96.492 288.109 95.745 283.062L91.899 282.207C92.18 281.285 92.503 280.359 92.86 279.437L95.417 280.01C95.285 278.057 95.302 276.028 95.492 273.917C96.286 272.496 97.174 271.106 98.152 269.744C98.244 269.991 98.343 270.23 98.435 270.477C98.174 272.187 98.028 273.847 97.992 275.451L99.171 272.351C99.58 273.407 99.994 274.467 100.41 275.515L98.283 281.109C98.804 285.099 99.978 288.725 101.558 292.025C102.136 289.122 102.758 286.203 103.447 283.275C103.962 284.533 104.493 285.792 105.086 287.008C104.469 289.83 103.911 292.651 103.412 295.44C106.328 300.256 110.082 304.229 113.801 307.401L115.078 297.547C115.566 297.721 116.071 297.867 116.592 297.985C116.898 298.058 117.212 298.11 117.527 298.163L116.085 309.252C119.622 312.019 123.424 314.587 127.131 317.065C128.58 318.036 130.04 319.017 131.49 320.018C132.183 312.163 133.067 304.198 134.127 296.199C134.997 296.011 135.868 295.823 136.731 295.642C135.571 304.403 134.625 313.121 133.904 321.703C138.105 324.68 142.149 327.885 145.673 331.625C146.841 319.753 148.382 307.67 150.278 295.577C150.652 295.729 151.011 295.897 151.367 296.089C151.802 296.329 152.208 296.598 152.588 296.886C150.65 309.447 149.114 321.97 147.973 334.259C148.501 334.906 149.022 335.561 149.514 336.246C151.846 339.462 153.746 343.052 155.439 346.779L159.451 331.025C159.868 332.204 160.405 333.295 161.094 334.269L157.003 350.339C157.869 352.409 158.696 354.501 159.51 356.565C159.667 356.946 159.821 357.339 159.978 357.72C161.721 351.196 163.619 344.63 165.665 338.06C166.354 338.396 167.082 338.681 167.848 338.916C165.738 345.715 163.8 352.504 162.032 359.237L161.676 360.581L161.151 360.648C162.241 363.352 163.38 366.044 164.643 368.608C165.706 370.764 166.876 372.848 168.124 374.86C170.326 363.507 172.932 352.001 175.91 340.457C176.705 340.56 177.503 340.651 178.291 340.762C175.263 352.52 172.632 364.234 170.43 375.789C170.297 376.475 170.062 377.005 169.782 377.421C172.149 380.903 174.781 384.158 177.683 387.148C180.31 372.689 183.831 357.947 188.17 343.172C188.904 343.521 189.605 343.926 190.264 344.364C185.938 359.283 182.465 374.157 179.894 388.728Z" fill="#7A7FDE"/>
<path d="M74.781 361.427L243.578 347.419C246.825 347.149 249.705 349.492 250.104 352.725L263.808 463.935C264.917 472.936 258.349 481.067 249.316 481.874L86.406 496.438C76.197 497.351 66.981 490.317 65.167 480.229L50.026 396.018C49.329 392.137 52.037 388.469 55.951 387.993L71.262 386.133L69.25 368.151C68.871 364.752 71.373 361.71 74.781 361.427Z" fill="#F9F3E8"/>
<path opacity="0.21" d="M71.263 386.133L55.952 387.993C52.038 388.468 49.329 392.137 50.027 396.018L65.167 480.229C65.845 484 67.559 487.344 69.971 490.006C85.801 491.342 82.781 467.471 82.781 467.471L71.263 386.133Z" fill="#A03C62"/>
<path d="M140.598 406.343L85.1803 413.041L91.8787 468.459L147.297 461.761L140.598 406.343Z" fill="#6369D3"/>
<path d="M144.914 442.049L89.496 448.748L91.8785 468.459L147.297 461.76L144.914 442.049Z" fill="#8DD479"/>
<path d="M100.768 441.139L143.067 426.732L144.917 442.034L101.511 447.282L100.768 441.139Z" fill="#BE553F"/>
<path d="M113.521 445.83L88.015 436.449L89.501 448.734L113.521 445.83Z" fill="#E1745F"/>
<path d="M111.055 425.433C111.511 429.206 108.823 432.634 105.05 433.09C101.277 433.546 97.849 430.857 97.393 427.084C96.937 423.311 99.626 419.883 103.398 419.427C107.171 418.971 110.6 421.66 111.055 425.433Z" fill="#EAAD46"/>
<path d="M187.44 400.68L146.423 405.638L146.961 410.094L187.979 405.136L187.44 400.68Z" fill="#A03C62"/>
<path d="M188.668 410.838L147.65 415.796L148.189 420.252L189.206 415.294L188.668 410.838Z" fill="#A03C62"/>
<path d="M189.896 420.994L148.878 425.952L149.417 430.408L190.434 425.45L189.896 420.994Z" fill="#A03C62"/>
<path d="M191.123 431.152L150.105 436.109L150.644 440.565L191.661 435.607L191.123 431.152Z" fill="#A03C62"/>
<path d="M192.345 441.265L151.328 446.223L151.866 450.678L192.884 445.721L192.345 441.265Z" fill="#A03C62"/>
<path d="M193.573 451.422L152.556 456.38L153.094 460.836L194.112 455.878L193.573 451.422Z" fill="#A03C62"/>
<path d="M239.455 394.394L198.437 399.352L198.976 403.807L239.993 398.849L239.455 394.394Z" fill="#A03C62"/>
<path d="M240.683 404.551L199.666 409.508L200.204 413.964L241.222 409.006L240.683 404.551Z" fill="#A03C62"/>
<path d="M241.911 414.707L200.894 419.665L201.432 424.12L242.45 419.162L241.911 414.707Z" fill="#A03C62"/>
<path d="M243.138 424.864L202.121 429.822L202.659 434.278L243.677 429.32L243.138 424.864Z" fill="#A03C62"/>
<path d="M244.36 434.978L203.342 439.936L203.881 444.392L244.899 439.434L244.36 434.978Z" fill="#A03C62"/>
<path d="M245.588 445.135L204.57 450.093L205.109 454.549L246.127 449.591L245.588 445.135Z" fill="#A03C62"/>
<path d="M195.865 470.389L154.847 475.347L155.386 479.803L196.403 474.845L195.865 470.389Z" fill="#A03C62"/>
<path d="M134.622 477.792L93.6046 482.75L94.1432 487.206L135.161 482.248L134.622 477.792Z" fill="#A03C62"/>
<path d="M237.858 381.174L83.582 399.822L84.1206 404.277L238.397 385.63L237.858 381.174Z" fill="#A03C62"/>
<path d="M247.882 464.101L206.864 469.059L207.403 473.515L248.42 468.557L247.882 464.101Z" fill="#A03C62"/>
<path d="M67.725 440.837L78.82 439.496L78.191 435.051L67.186 436.382L67.725 440.837Z" fill="#A03C62"/>
<path d="M68.947 450.95L80.249 449.584L79.619 445.14L68.409 446.495L68.947 450.95Z" fill="#A03C62"/>
<path d="M66.497 430.68L77.385 429.364L76.756 424.92L65.958 426.225L66.497 430.68Z" fill="#A03C62"/>
<path d="M64.041 410.367L74.516 409.101L73.887 404.656L63.503 405.912L64.041 410.367Z" fill="#A03C62"/>
<path d="M81.054 455.271L69.637 456.652L70.175 461.107L81.684 459.716L81.054 455.271Z" fill="#A03C62"/>
<path d="M65.269 420.524L75.951 419.232L75.321 414.788L64.73 416.068L65.269 420.524Z" fill="#A03C62"/>
<mask id="mask0_518_144" style="mask-type:luminance" maskUnits="userSpaceOnUse" x="0" y="0" width="500" height="500">
<path d="M500 0H0V500H500V0Z" fill="white"/>
</mask>
<g mask="url(#mask0_518_144)">
<path d="M138.546 250.383C138.546 250.383 132.678 259.908 124.406 258.649C117.727 257.629 114.397 249.445 113.361 246.336C113.114 245.591 112.998 245.14 112.998 245.14C112.998 245.14 112.527 245.002 111.856 244.714C110.281 244.043 107.598 242.563 107.296 240.164C106.865 236.744 113.359 237.197 113.359 237.197C113.359 237.197 111.503 233.376 113.018 231.774C114.51 230.2 118.602 231.423 118.602 231.423C118.602 231.423 115.497 226.936 117.899 225.121C121.511 222.392 124.262 228.156 124.521 228.517C124.375 228.086 118.128 209.908 121.549 210.119C124.535 210.303 130.726 225.272 132.359 229.356C132.619 230.003 132.762 230.375 132.762 230.375C132.762 230.375 132.985 230.316 133.365 230.24C135.172 229.874 140.563 229.122 142.383 232.574C144.586 236.745 138.546 250.383 138.546 250.383Z" fill="#B96359"/>
<path d="M119.799 240.87C120.774 242.16 121.472 243.652 121.419 244.843C121.382 245.611 121.045 246.208 120.44 246.568C120.023 246.816 119.435 246.943 118.758 246.985C117.068 247.092 114.835 246.675 113.362 246.336C113.113 245.591 112.999 245.14 112.999 245.14C112.999 245.14 112.525 245.003 111.854 244.714C111.969 244.68 112.094 244.68 112.215 244.715C114.53 245.364 118.632 246.144 119.783 245.458C119.931 245.367 120.109 245.207 120.132 244.781C120.19 243.473 118.665 241.08 116.997 239.862C116.728 239.667 116.65 239.309 116.814 239.024C116.976 238.732 117.329 238.617 117.63 238.749C119.095 239.381 123.256 240.796 124.931 239.8C125.174 239.655 125.182 239.525 125.182 239.456C125.196 239.147 124.973 238.725 124.616 238.258C123.889 237.309 122.605 236.182 121.626 235.479C121.513 235.396 121.435 235.289 121.395 235.167C121.326 234.974 121.35 234.755 121.478 234.579C121.686 234.289 122.089 234.223 122.382 234.431C122.819 234.745 124.347 235.885 125.407 237.177C125.792 237.649 126.117 238.142 126.301 238.623C126.421 238.928 126.484 239.228 126.474 239.515C126.454 239.921 126.286 240.494 125.592 240.91C124.109 241.787 121.686 241.4 119.799 240.87Z" fill="black"/>
<path d="M128.182 233.344C127.951 233.473 127.82 233.728 127.859 233.99C127.984 234.822 127.965 235.573 127.759 236.066C127.592 236.455 127.371 236.546 127.198 236.579C126.916 236.632 126.529 236.577 126.075 236.44C124.95 236.103 123.413 235.274 122.063 234.43C122.102 234.552 122.181 234.659 122.294 234.742C123.273 235.445 124.557 236.573 125.284 237.521C125.429 237.574 125.574 237.621 125.714 237.663C126.165 237.796 126.593 237.878 126.969 237.885C127.136 237.887 127.289 237.876 127.436 237.847C128.13 237.716 128.652 237.271 128.947 236.565C129.258 235.82 129.294 234.831 129.139 233.79C129.073 233.349 128.59 233.115 128.201 233.333C128.194 233.337 128.188 233.341 128.182 233.344Z" fill="black"/>
<path d="M138.821 238.294C138.666 238.349 136.282 239.161 133.822 239.316C132.46 239.402 131.072 239.285 130.028 238.723C129.168 238.26 128.609 237.551 128.369 236.616C127.52 233.297 130.503 230.643 132.359 229.356C132.619 230.003 132.762 230.375 132.762 230.375C132.762 230.375 132.985 230.316 133.365 230.24C131.795 231.283 128.93 233.606 129.62 236.295C129.766 236.874 130.1 237.296 130.639 237.586C132.654 238.672 136.924 237.586 138.399 237.076C138.735 236.958 139.104 237.135 139.219 237.474C139.337 237.809 139.156 238.176 138.821 238.294Z" fill="black"/>
<path d="M128.121 253.431C127.899 253.445 127.676 253.344 127.544 253.146C127.346 252.85 127.425 252.449 127.722 252.251C129.318 251.184 130.242 249.805 130.467 248.154C131.045 243.922 127.017 239.176 126.976 239.129C126.744 238.859 126.775 238.451 127.045 238.219C127.315 237.987 127.723 238.017 127.955 238.288C128.137 238.499 132.402 243.528 131.746 248.329C131.468 250.362 130.356 252.042 128.439 253.324C128.34 253.388 128.231 253.424 128.121 253.431Z" fill="black"/>
<path d="M219.179 222.115L208.719 236.543C207.078 238.986 205.427 241.418 203.766 243.833C202.115 246.256 200.464 248.671 198.796 251.059C197.122 253.442 195.464 255.822 193.791 258.16C192.119 260.496 190.428 262.795 188.744 265.015C187.075 267.237 185.383 269.404 183.772 271.303C182.974 272.245 182.188 273.12 181.543 273.793L181.111 274.235L180.935 274.412C180.898 274.452 180.894 274.464 180.875 274.494C180.813 274.587 180.774 274.651 180.751 274.704C180.705 274.809 180.73 274.875 180.66 274.965C180.595 275.055 180.408 275.154 180.036 275.215C179.296 275.339 177.811 275.19 176.029 274.642C174.245 274.101 172.2 273.189 170.118 272.05C168.035 270.9 165.873 269.559 163.734 268.056C159.453 265.039 155.177 261.516 151.038 257.739C146.881 253.973 143.877 251.018 139.955 246.895C136.686 253.444 130.342 257.785 122.556 258.634C126.043 263.943 129.819 269.012 133.903 273.961C138.014 278.886 142.413 283.685 147.459 288.213C149.987 290.474 152.658 292.699 155.632 294.775C158.608 296.852 161.844 298.838 165.627 300.536C167.52 301.379 169.553 302.157 171.784 302.764C174.012 303.37 176.437 303.827 179.063 303.987C181.686 304.144 184.514 303.998 187.367 303.39C190.217 302.797 193.057 301.737 195.603 300.336C196.878 299.638 198.084 298.86 199.204 298.032L200.019 297.408L200.698 296.856C200.933 296.666 201.123 296.499 201.334 296.32C201.535 296.146 201.756 295.961 201.94 295.795C203.489 294.424 204.794 293.147 206.032 291.889C208.49 289.381 210.661 286.956 212.775 284.526C214.873 282.092 216.866 279.657 218.829 277.224C220.788 274.79 222.708 272.357 224.573 269.898C226.442 267.443 228.292 264.988 230.11 262.52C231.918 260.044 233.707 257.564 235.481 255.076C237.239 252.577 238.987 250.077 240.708 247.555L243.273 243.757L244.54 241.838C244.968 241.19 245.374 240.567 245.82 239.872L219.179 222.115Z" fill="#7098FA"/>
<path d="M129.097 267.481C128.745 267.391 128.482 267.073 128.477 266.692C128.471 266.236 128.835 265.86 129.292 265.854C141.351 265.686 144.522 253.41 144.553 253.286C144.663 252.843 145.111 252.572 145.554 252.682C145.557 252.683 145.559 252.683 145.561 252.684C146 252.797 146.267 253.242 146.158 253.683C146.124 253.819 142.636 267.322 129.315 267.507C129.239 267.508 129.166 267.499 129.097 267.481Z" fill="black"/>
<path d="M135.046 266.321C134.867 266.275 134.703 266.17 134.585 266.009L128.756 258.065C128.486 257.697 128.565 257.18 128.933 256.91C129.301 256.64 129.819 256.72 130.089 257.087L135.918 265.031C136.188 265.399 136.109 265.916 135.741 266.186C135.533 266.339 135.278 266.38 135.046 266.321Z" fill="black"/>
<path d="M139.842 256.266C139.645 257.032 138.865 257.494 138.099 257.298C137.332 257.101 136.871 256.321 137.067 255.554C137.264 254.788 138.044 254.325 138.811 254.522C139.576 254.719 140.038 255.499 139.842 256.266Z" fill="black"/>
<path d="M184.786 284.456C184.543 284.394 184.33 284.221 184.227 283.972C184.207 283.923 182.193 279.093 180.015 276.504C179.721 276.155 179.766 275.633 180.115 275.34C180.464 275.046 180.986 275.091 181.28 275.44C183.624 278.226 185.669 283.132 185.755 283.34C185.93 283.762 185.729 284.245 185.308 284.42C185.135 284.49 184.953 284.499 184.786 284.456Z" fill="black"/>
<path d="M179.137 283.861C179.079 283.846 179.023 283.825 178.968 283.797C178.561 283.591 178.399 283.093 178.604 282.686C178.62 282.654 180.233 279.433 180.157 276.677C180.145 276.22 180.505 275.841 180.961 275.828C181.417 275.815 181.797 276.175 181.81 276.632C181.897 279.813 180.152 283.287 180.078 283.434C179.899 283.786 179.503 283.955 179.137 283.861Z" fill="black"/>
<path d="M249.039 393.374C248.949 395.615 248.837 397.803 248.7 399.94C248.686 400.192 248.668 400.444 248.65 400.693C247.753 414.597 245.99 426.439 243.633 437.189C242.948 440.317 242.213 443.355 241.435 446.325C241.262 446.985 241.085 447.648 240.909 448.3V448.304C239.395 453.854 237.741 459.184 235.979 464.449C235.701 465.289 235.417 466.128 235.132 466.965C233.139 472.8 231.027 478.591 228.858 484.562C225.305 494.354 221.6 504.621 218.018 516.352C218.018 516.352 221.885 560.391 211.603 597.334C201.318 634.281 181.489 675.516 181.489 675.516C176.804 679.974 172.959 681.398 165.575 682.558L183.519 514.421L183.868 511.152L184.416 506.024L186.005 476.689L186.664 464.45L187.194 454.687L187.98 440.164L189.241 416.865L249.039 393.374Z" fill="#B96359"/>
<path d="M235.979 464.449C235.701 465.289 235.417 466.128 235.132 466.965C233.139 472.8 231.027 478.591 228.858 484.562C211.441 482.238 195.807 478.962 186.005 476.688L186.664 464.449H235.979Z" fill="#A34A43"/>
<path d="M296.646 391.039C296.646 391.039 296.606 412.136 295.813 449.01C295.712 453.883 295.593 459.033 295.46 464.449C295.439 465.314 295.417 466.19 295.395 467.069C295.251 472.745 295.092 478.702 294.916 484.922C294.686 493.157 294.422 501.856 294.123 510.989C294.083 512.157 294.044 513.324 294.004 514.503C293.918 517.058 293.831 519.646 293.741 522.266L290.948 672.554L274.086 658.243C274.086 658.243 264.507 611.274 257.397 571.282C250.748 533.874 259.257 516.053 259.257 516.053C256.287 508.002 253.43 497.85 250.972 486.808C249.628 480.793 248.406 474.512 247.343 468.165C247.138 466.929 246.936 465.689 246.745 464.449C245.902 459.051 245.177 453.63 244.608 448.304V448.3C244.536 447.619 244.464 446.948 244.399 446.271C244.089 443.197 243.833 440.162 243.635 437.189C242.694 423.037 243.051 410.265 245.293 401.371L248.652 400.693L252.4 399.94L296.646 391.039Z" fill="#B96359"/>
<path d="M295.46 464.449C295.439 465.314 295.417 466.19 295.395 467.069C295.251 472.745 295.092 478.702 294.916 484.922C281.809 487.596 266.348 487.83 250.971 486.807C249.627 480.792 248.405 474.511 247.342 468.164C247.137 466.928 246.935 465.688 246.744 464.448H295.46V464.449Z" fill="#A34A43"/>
<path d="M306.942 472.16C306.942 472.16 208.957 490.284 167.553 459.402C167.553 459.402 168.735 456.065 170.202 451.87C170.469 451.106 170.746 450.317 171.027 449.51C171.218 448.959 171.413 448.4 171.611 447.838C172.339 445.726 173.071 443.593 173.708 441.701C174.418 439.622 175.009 437.827 175.362 436.674C175.546 436.068 175.74 435.434 175.939 434.778C179.539 422.997 185.525 403.335 190.005 388.382V388.378C190.398 387.063 190.78 385.787 191.144 384.554C191.252 384.197 191.357 383.844 191.461 383.494C192.268 380.788 193.086 377.923 193.908 374.967C194.488 372.884 195.065 370.754 195.641 368.602C196.077 366.962 196.513 365.312 196.945 363.658C197.14 362.905 197.338 362.151 197.533 361.398C199.926 352.136 202.16 342.95 203.89 335.667C204.049 335.008 204.2 334.362 204.348 333.739C206.186 325.958 207.346 320.776 207.346 320.776C246.704 330.589 289.798 329.083 289.798 329.083C289.798 329.083 291.398 334.698 293.434 344.028C293.571 344.644 293.708 345.286 293.848 345.938C295.693 354.612 297.812 366.087 299.409 379.065C299.459 379.476 299.51 379.887 299.557 380.301C299.593 380.579 299.625 380.853 299.658 381.13C299.806 382.373 299.946 383.627 300.08 384.896C300.379 387.668 300.642 390.496 300.876 393.372V393.376C301.028 395.257 301.197 397.326 301.377 399.531C301.618 402.504 301.885 405.722 302.159 409.063C302.285 410.595 302.411 412.152 302.545 413.719C303.363 423.644 304.235 434.088 304.891 441.977C304.949 442.651 305.003 443.3 305.053 443.93C305.345 447.4 305.849 455.037 306.267 461.495C306.321 462.342 306.371 463.171 306.426 463.964C306.722 468.618 306.942 472.16 306.942 472.16Z" fill="#E2755E"/>
<path d="M215.581 342.48C215.311 342.21 215.004 342.001 214.678 341.845C213.469 343.641 212.447 345.549 211.347 347.414C212.623 348.352 214.426 348.248 215.581 347.093C216.855 345.819 216.855 343.754 215.581 342.48Z" fill="black"/>
<path d="M229.186 349.847C227.912 351.121 225.847 351.121 224.572 349.847C223.298 348.573 223.298 346.507 224.572 345.234C225.846 343.96 227.912 343.96 229.186 345.234C230.46 346.508 230.46 348.573 229.186 349.847Z" fill="black"/>
<path d="M243.272 351.982C241.998 353.256 239.932 353.256 238.658 351.982C237.384 350.708 237.384 348.642 238.658 347.368C239.932 346.094 241.997 346.094 243.272 347.368C244.546 348.642 244.546 350.708 243.272 351.982Z" fill="black"/>
<path d="M257.681 353.47C256.407 354.744 254.341 354.744 253.068 353.47C251.794 352.196 251.794 350.13 253.068 348.856C254.342 347.582 256.407 347.582 257.681 348.856C258.955 350.13 258.955 352.195 257.681 353.47Z" fill="black"/>
<path d="M267.376 349.976C266.38 351.256 266.468 353.105 267.644 354.281C267.969 354.606 268.347 354.847 268.749 355.007C268.082 353.389 267.591 351.711 267.376 349.976Z" fill="black"/>
<path d="M213.662 362.457C212.363 363.769 210.246 363.779 208.934 362.48C207.622 361.181 207.612 359.064 208.911 357.752C210.21 356.44 212.327 356.43 213.639 357.729C214.951 359.029 214.962 361.146 213.662 362.457Z" fill="black"/>
<path d="M227.617 365.212C226.318 366.524 224.201 366.534 222.889 365.235C221.577 363.936 221.567 361.819 222.866 360.507C224.165 359.195 226.282 359.185 227.594 360.484C228.906 361.784 228.916 363.9 227.617 365.212Z" fill="black"/>
<path d="M242.062 367.33C240.763 368.642 238.646 368.652 237.335 367.353C236.023 366.054 236.013 363.937 237.312 362.626C238.611 361.314 240.728 361.304 242.04 362.603C243.351 363.902 243.361 366.019 242.062 367.33Z" fill="black"/>
<path d="M256.835 368.785C255.536 370.097 253.419 370.107 252.107 368.808C250.795 367.509 250.785 365.392 252.084 364.08C253.383 362.768 255.5 362.758 256.812 364.057C258.124 365.356 258.134 367.473 256.835 368.785Z" fill="black"/>
<path d="M271.776 369.544C270.477 370.856 268.36 370.866 267.048 369.567C265.736 368.268 265.726 366.151 267.026 364.839C268.325 363.527 270.442 363.517 271.754 364.816C273.065 366.115 273.075 368.232 271.776 369.544Z" fill="black"/>
<path d="M198.102 374.424C196.97 375.574 195.233 375.757 193.907 374.968C194.487 372.885 195.064 370.755 195.64 368.603C196.512 368.596 197.384 368.924 198.054 369.58C199.404 370.907 199.425 373.073 198.102 374.424Z" fill="black"/>
<path d="M211.743 377.806C210.418 379.156 208.251 379.176 206.901 377.852C205.551 376.528 205.531 374.36 206.856 373.01C208.18 371.66 210.348 371.64 211.698 372.964C213.048 374.288 213.068 376.456 211.743 377.806Z" fill="black"/>
<path d="M226.048 380.562C224.724 381.911 222.556 381.932 221.206 380.607C219.856 379.283 219.836 377.115 221.16 375.765C222.485 374.416 224.652 374.395 226.002 375.72C227.353 377.044 227.373 379.212 226.048 380.562Z" fill="black"/>
<path d="M240.852 382.663C239.528 384.013 237.36 384.033 236.01 382.708C234.661 381.384 234.64 379.216 235.965 377.866C237.289 376.516 239.457 376.496 240.807 377.821C242.156 379.146 242.176 381.314 240.852 382.663Z" fill="black"/>
<path d="M255.988 384.082C254.664 385.431 252.496 385.452 251.146 384.128C249.796 382.804 249.776 380.636 251.101 379.286C252.425 377.937 254.593 377.916 255.943 379.241C257.293 380.565 257.313 382.733 255.988 384.082Z" fill="black"/>
<path d="M271.294 384.79C269.97 386.14 267.802 386.16 266.452 384.836C265.102 383.512 265.082 381.344 266.406 379.994C267.73 378.644 269.898 378.624 271.248 379.948C272.598 381.273 272.619 383.441 271.294 384.79Z" fill="black"/>
<path d="M286.604 384.759C285.28 386.109 283.112 386.129 281.762 384.805C280.413 383.481 280.392 381.313 281.717 379.963C283.041 378.613 285.209 378.593 286.559 379.917C287.908 381.242 287.929 383.41 286.604 384.759Z" fill="black"/>
<path d="M300.081 384.897C298.982 385.153 297.778 384.854 296.913 384.007C295.666 382.785 295.558 380.843 296.589 379.491C297.562 379.815 298.553 380.082 299.559 380.302C299.595 380.58 299.627 380.854 299.66 381.131C299.807 382.374 299.947 383.628 300.081 384.897Z" fill="black"/>
<path d="M195.846 389.733C194.495 391.121 192.275 391.153 190.891 389.802C190.469 389.395 190.174 388.905 190.004 388.382V388.378C190.397 387.063 190.779 385.787 191.143 384.554C192.502 383.462 194.495 383.53 195.778 384.777C197.165 386.129 197.194 388.346 195.846 389.733Z" fill="black"/>
<path d="M209.824 393.135C208.475 394.522 206.256 394.553 204.868 393.203C203.48 391.853 203.45 389.635 204.8 388.247C206.15 386.86 208.369 386.829 209.756 388.179C211.144 389.529 211.174 391.748 209.824 393.135Z" fill="black"/>
<path d="M224.48 395.892C223.13 397.28 220.912 397.31 219.524 395.96C218.136 394.61 218.106 392.392 219.456 391.004C220.806 389.616 223.025 389.586 224.412 390.936C225.799 392.286 225.829 394.505 224.48 395.892Z" fill="black"/>
<path d="M239.642 397.977C238.292 399.364 236.073 399.395 234.686 398.045C233.299 396.695 233.268 394.477 234.618 393.089C235.968 391.701 238.186 391.671 239.573 393.021C240.961 394.371 240.992 396.59 239.642 397.977Z" fill="black"/>
<path d="M255.142 399.362C253.792 400.749 251.574 400.78 250.186 399.43C248.799 398.08 248.768 395.862 250.118 394.474C251.468 393.087 253.687 393.056 255.074 394.406C256.461 395.756 256.492 397.975 255.142 399.362Z" fill="black"/>
<path d="M270.812 400.018C269.462 401.405 267.244 401.436 265.856 400.086C264.468 398.736 264.438 396.518 265.788 395.13C267.138 393.743 269.356 393.712 270.744 395.062C272.132 396.412 272.162 398.631 270.812 400.018Z" fill="black"/>
<path d="M286.484 399.918C285.134 401.305 282.916 401.336 281.528 399.986C280.141 398.636 280.11 396.418 281.46 395.03C282.81 393.642 285.028 393.612 286.416 394.962C287.803 396.312 287.833 398.531 286.484 399.918Z" fill="black"/>
<path d="M301.378 399.532C300.037 400.4 298.225 400.264 297.032 399.099C295.644 397.751 295.616 395.531 296.964 394.144C298.013 393.07 299.58 392.811 300.878 393.377C301.029 395.258 301.198 397.327 301.378 399.532Z" fill="black"/>
<path d="M193.589 405.045C192.214 406.47 189.944 406.511 188.519 405.136C187.094 403.761 187.053 401.491 188.428 400.066C189.803 398.641 192.073 398.6 193.498 399.975C194.923 401.35 194.964 403.62 193.589 405.045Z" fill="black"/>
<path d="M207.906 408.465C206.531 409.89 204.261 409.931 202.836 408.556C201.411 407.181 201.37 404.911 202.745 403.486C204.12 402.061 206.39 402.02 207.815 403.395C209.24 404.77 209.281 407.039 207.906 408.465Z" fill="black"/>
<path d="M222.911 411.224C221.536 412.649 219.266 412.69 217.841 411.315C216.416 409.94 216.375 407.67 217.75 406.245C219.125 404.82 221.395 404.779 222.82 406.154C224.245 407.529 224.286 409.798 222.911 411.224Z" fill="black"/>
<path d="M238.432 413.291C237.057 414.716 234.787 414.757 233.362 413.382C231.937 412.007 231.896 409.737 233.271 408.312C234.646 406.887 236.916 406.846 238.341 408.221C239.766 409.596 239.807 411.866 238.432 413.291Z" fill="black"/>
<path d="M254.296 414.642C252.921 416.067 250.651 416.108 249.226 414.733C247.801 413.358 247.76 411.088 249.135 409.663C250.51 408.238 252.78 408.197 254.205 409.572C255.63 410.947 255.671 413.217 254.296 414.642Z" fill="black"/>
<path d="M270.331 415.246C268.956 416.671 266.686 416.712 265.261 415.337C263.836 413.962 263.795 411.692 265.17 410.267C266.545 408.842 268.815 408.801 270.24 410.176C271.665 411.551 271.705 413.821 270.331 415.246Z" fill="black"/>
<path d="M286.363 415.077C284.988 416.502 282.718 416.543 281.293 415.168C279.868 413.793 279.827 411.523 281.202 410.098C282.577 408.673 284.847 408.632 286.272 410.007C287.697 411.381 287.738 413.651 286.363 415.077Z" fill="black"/>
<path d="M302.546 413.72C302.449 413.853 302.34 413.983 302.221 414.106C300.844 415.529 298.578 415.569 297.151 414.196C295.727 412.819 295.684 410.549 297.061 409.126C298.434 407.702 300.705 407.659 302.132 409.036C302.143 409.047 302.15 409.054 302.161 409.065C302.286 410.596 302.412 412.153 302.546 413.72Z" fill="black"/>
<path d="M191.333 420.341C189.933 421.804 187.612 421.855 186.149 420.455C184.686 419.055 184.635 416.734 186.035 415.271C187.435 413.808 189.756 413.757 191.219 415.157C192.682 416.557 192.734 418.878 191.333 420.341Z" fill="black"/>
<path d="M205.987 423.779C204.587 425.242 202.266 425.293 200.803 423.893C199.34 422.493 199.289 420.172 200.689 418.709C202.089 417.246 204.41 417.195 205.873 418.595C207.336 419.995 207.387 422.316 205.987 423.779Z" fill="black"/>
<path d="M221.342 426.538C219.942 428.001 217.621 428.052 216.158 426.652C214.695 425.252 214.644 422.931 216.044 421.468C217.444 420.005 219.765 419.954 221.228 421.354C222.691 422.754 222.742 425.075 221.342 426.538Z" fill="black"/>
<path d="M237.222 428.59C235.822 430.053 233.501 430.104 232.038 428.704C230.575 427.304 230.524 424.983 231.924 423.52C233.324 422.057 235.645 422.006 237.108 423.406C238.571 424.806 238.622 427.127 237.222 428.59Z" fill="black"/>
<path d="M253.449 429.906C252.049 431.369 249.728 431.42 248.265 430.019C246.802 428.619 246.751 426.298 248.151 424.835C249.551 423.372 251.872 423.321 253.335 424.722C254.799 426.122 254.85 428.443 253.449 429.906Z" fill="black"/>
<path d="M269.849 430.459C268.449 431.922 266.128 431.973 264.665 430.572C263.202 429.172 263.151 426.851 264.551 425.388C265.951 423.925 268.272 423.874 269.735 425.275C271.198 426.675 271.249 428.996 269.849 430.459Z" fill="black"/>
<path d="M286.243 430.22C284.843 431.683 282.522 431.734 281.059 430.334C279.596 428.934 279.545 426.613 280.945 425.15C282.345 423.687 284.666 423.636 286.129 425.036C287.592 426.436 287.643 428.757 286.243 430.22Z" fill="black"/>
<path d="M302.454 429.161C301.054 430.624 298.733 430.675 297.27 429.275C295.807 427.875 295.756 425.554 297.156 424.091C298.556 422.628 300.877 422.577 302.34 423.977C303.804 425.377 303.854 427.698 302.454 429.161Z" fill="black"/>
<path d="M189.077 435.659C187.652 437.16 185.28 437.221 183.779 435.795C182.278 434.37 182.217 431.998 183.643 430.497C185.068 428.996 187.441 428.935 188.941 430.361C190.442 431.786 190.503 434.158 189.077 435.659Z" fill="black"/>
<path d="M204.068 439.117C202.643 440.618 200.271 440.679 198.77 439.253C197.269 437.828 197.208 435.456 198.634 433.955C200.059 432.454 202.431 432.393 203.932 433.818C205.432 435.244 205.493 437.616 204.068 439.117Z" fill="black"/>
<path d="M219.773 441.876C218.348 443.377 215.976 443.438 214.475 442.012C212.974 440.587 212.913 438.215 214.339 436.714C215.764 435.213 218.136 435.152 219.637 436.578C221.138 438.003 221.199 440.375 219.773 441.876Z" fill="black"/>
<path d="M236.012 443.911C234.587 445.412 232.215 445.473 230.714 444.047C229.213 442.622 229.152 440.25 230.578 438.749C232.003 437.248 234.375 437.187 235.876 438.613C237.376 440.038 237.437 442.41 236.012 443.911Z" fill="black"/>
<path d="M252.603 445.194C251.178 446.695 248.806 446.756 247.305 445.33C245.804 443.905 245.743 441.533 247.169 440.032C248.594 438.531 250.966 438.47 252.467 439.896C253.968 441.321 254.029 443.694 252.603 445.194Z" fill="black"/>
<path d="M269.367 445.695C267.942 447.196 265.57 447.257 264.069 445.831C262.568 444.406 262.507 442.034 263.933 440.533C265.358 439.032 267.73 438.971 269.231 440.397C270.731 441.823 270.792 444.195 269.367 445.695Z" fill="black"/>
<path d="M286.122 445.386C284.696 446.886 282.324 446.948 280.824 445.522C279.323 444.097 279.262 441.725 280.687 440.224C282.113 438.723 284.484 438.662 285.985 440.088C287.486 441.513 287.547 443.885 286.122 445.386Z" fill="black"/>
<path d="M302.688 444.241C301.263 445.742 298.891 445.803 297.39 444.378C295.889 442.953 295.828 440.58 297.254 439.08C298.679 437.579 301.051 437.518 302.552 438.944C304.052 440.368 304.113 442.74 302.688 444.241Z" fill="black"/>
<path d="M173.521 446.739C172.984 447.309 172.317 447.676 171.611 447.838C172.339 445.726 173.071 443.593 173.708 441.701C174.901 443.164 174.854 445.326 173.521 446.739Z" fill="black"/>
<path d="M186.822 450.977C185.371 452.515 182.948 452.587 181.41 451.136C179.872 449.685 179.8 447.262 181.251 445.724C182.702 444.186 185.125 444.114 186.663 445.565C188.201 447.015 188.272 449.439 186.822 450.977Z" fill="black"/>
<path d="M202.149 454.453C200.698 455.991 198.275 456.063 196.737 454.612C195.199 453.161 195.127 450.738 196.578 449.2C198.029 447.661 200.452 447.59 201.99 449.041C203.529 450.491 203.6 452.914 202.149 454.453Z" fill="black"/>
<path d="M218.205 457.214C216.754 458.752 214.331 458.824 212.793 457.373C211.255 455.923 211.183 453.5 212.634 451.961C214.085 450.423 216.508 450.351 218.046 451.802C219.584 453.253 219.655 455.676 218.205 457.214Z" fill="black"/>
<path d="M234.802 459.233C233.351 460.771 230.928 460.843 229.39 459.392C227.852 457.941 227.78 455.518 229.231 453.98C230.682 452.442 233.105 452.37 234.643 453.821C236.181 455.271 236.252 457.694 234.802 459.233Z" fill="black"/>
<path d="M251.757 460.48C250.306 462.018 247.883 462.09 246.345 460.639C244.807 459.188 244.735 456.765 246.186 455.227C247.637 453.689 250.06 453.617 251.598 455.068C253.136 456.519 253.207 458.942 251.757 460.48Z" fill="black"/>
<path d="M268.885 460.93C267.434 462.468 265.011 462.54 263.473 461.089C261.935 459.638 261.863 457.215 263.314 455.677C264.765 454.139 267.188 454.067 268.726 455.518C270.264 456.968 270.336 459.391 268.885 460.93Z" fill="black"/>
<path d="M286.001 460.552C284.55 462.091 282.127 462.162 280.589 460.711C279.051 459.26 278.979 456.837 280.43 455.299C281.881 453.761 284.304 453.689 285.842 455.14C287.381 456.591 287.452 459.014 286.001 460.552Z" fill="black"/>
<path d="M302.921 459.32C301.47 460.858 299.047 460.93 297.509 459.479C295.971 458.028 295.899 455.605 297.35 454.067C298.801 452.529 301.224 452.457 302.762 453.908C304.301 455.359 304.372 457.782 302.921 459.32Z" fill="black"/>
<path d="M306.427 463.965C295.644 465.504 282.721 466.895 268.738 467.453C261.592 467.741 254.625 467.795 247.85 467.622C233.301 467.251 219.632 465.827 207.018 463.362C193.522 460.72 181.214 456.875 170.201 451.869C170.468 451.105 170.745 450.316 171.026 449.509C202.722 463.928 240.26 466.126 268.586 464.994C282.583 464.432 295.51 463.037 306.268 461.495C306.322 462.344 306.373 463.172 306.427 463.965Z" fill="black"/>
<path d="M265.504 345.004C265.539 345.637 265.59 346.286 265.659 346.942C266.133 351.58 267.442 356.707 270.289 361.66C275.766 371.189 285.644 377.738 299.659 381.133C299.577 380.438 299.496 379.75 299.41 379.067C286.308 375.757 277.078 369.581 271.97 360.693C269.34 356.117 268.109 351.324 267.647 346.958C267.577 346.302 267.523 345.653 267.484 345.02C267.018 337.115 268.89 331.028 268.921 330.931C269.084 330.422 268.801 329.874 268.288 329.715C267.775 329.552 267.232 329.835 267.068 330.348C266.937 330.76 265.041 336.936 265.504 345.004Z" fill="black"/>
<path d="M203.889 335.669C207.311 337.285 210.939 338.676 214.684 339.876C215.302 340.074 215.927 340.268 216.553 340.455C231.555 344.957 248.242 346.499 261.698 346.868C263.034 346.903 264.355 346.926 265.66 346.942C266.328 346.954 266.992 346.957 267.649 346.957C268.146 346.965 268.64 346.965 269.129 346.965C279.023 346.965 287.732 346.444 293.849 345.939C293.709 345.286 293.573 344.645 293.437 344.028C287.039 344.548 277.86 345.081 267.485 345.019C266.829 345.019 266.168 345.011 265.504 345.003C264.257 344.987 262.995 344.96 261.721 344.925C248.429 344.556 231.955 343.041 217.197 338.624H217.193C216.568 338.437 215.95 338.243 215.332 338.045C211.51 336.825 207.819 335.4 204.347 333.737C204.199 334.364 204.048 335.009 203.889 335.669Z" fill="black"/>
<path d="M196.947 363.661C203.349 361.47 208.876 356.183 213.196 348.03C214.575 345.424 215.682 342.817 216.552 340.455C216.781 339.826 216.995 339.216 217.193 338.625H217.197C218.662 334.271 219.268 331.089 219.306 330.876C219.403 330.348 219.057 329.843 218.529 329.742C218.005 329.645 217.496 329.994 217.399 330.519C217.391 330.569 216.789 333.731 215.333 338.047C215.135 338.637 214.918 339.248 214.684 339.877C213.841 342.165 212.777 344.674 211.46 347.16C207.615 354.409 202.953 359.171 197.534 361.4C197.339 362.154 197.141 362.908 196.947 363.661Z" fill="black"/>
<path d="M201.553 282.28C201.582 282.368 201.597 282.441 201.626 282.529C201.905 283.483 202.242 284.407 202.639 285.317C204.957 290.761 208.963 295.368 210.562 297.085C211.002 297.569 211.266 297.818 211.266 297.818C211.266 297.847 211.251 297.877 211.251 297.921C211.222 298.2 211.192 298.478 211.163 298.787C211.046 299.961 210.87 301.369 210.547 302.925C206.732 320.782 206.982 321.501 205.441 329.087C249.402 342.807 291.264 335.69 291.264 335.69C290.002 311.553 288.535 321.149 291.161 303.644C292.423 295.192 295.827 282.515 300.376 269.881C300.552 269.382 300.728 268.883 300.919 268.384C302.284 264.672 303.736 260.974 305.262 257.423C311.938 241.869 313.009 224.364 296.972 219.009C293.172 217.747 288.652 216.647 284.456 215.781C283.326 215.546 282.211 215.326 281.154 215.121C275.241 214.006 270.619 213.375 270.619 213.375L242.27 213.727C239.482 214.05 236.973 214.402 234.713 214.828C232.732 215.18 230.942 215.591 229.328 216.046C214.89 220.067 214.361 227.667 211.764 241.372C211.016 245.275 209.959 249.119 208.8 252.817C208.418 253.976 208.037 255.121 207.656 256.265C203.989 267.153 199.954 276.514 201.553 282.28Z" fill="#7098FA"/>
<path d="M207.027 320.918L205.289 329.217C205.289 329.217 248.799 344.17 292.448 335.952L291.032 328.251C291.032 328.251 256.323 335.093 207.027 320.918Z" fill="black"/>
<path d="M242.208 216.338L239.492 241.418C249.837 239.408 271.188 225.209 271.312 214.025L242.208 216.338Z" fill="#B96359"/>
<path d="M211.267 297.819C211.267 297.848 211.252 297.878 211.252 297.922C211.223 298.201 211.193 298.479 211.164 298.788C216.344 299.962 223.005 300.109 230.841 298.583C246.292 295.56 258.926 302.692 259.043 302.765C259.16 302.838 259.307 302.868 259.439 302.868C259.703 302.868 259.967 302.721 260.099 302.472C260.319 302.105 260.187 301.636 259.82 301.415C259.292 301.107 246.57 293.932 230.533 297.057C222.404 298.642 215.625 298.392 210.563 297.087C211.003 297.57 211.267 297.819 211.267 297.819Z" fill="black"/>
<path d="M235.349 258.194C244.81 258.194 264.113 244.645 264.93 244.068C265.28 243.821 265.364 243.336 265.117 242.985C264.87 242.635 264.385 242.551 264.034 242.798C263.838 242.936 244.319 256.64 235.349 256.64C226.768 256.64 224.865 247.265 224.847 247.171C224.766 246.75 224.36 246.472 223.937 246.555C223.516 246.636 223.24 247.043 223.321 247.465C223.342 247.571 225.499 258.194 235.349 258.194Z" fill="black"/>
<path d="M236.193 312.168L220.128 309.781C218.879 309.595 218.017 308.432 218.203 307.184L222.119 280.829C222.305 279.58 223.467 278.718 224.716 278.904L240.781 281.291C242.03 281.477 242.892 282.639 242.706 283.888L238.79 310.243C238.605 311.492 237.442 312.354 236.193 312.168Z" fill="#F9F3E8"/>
<path d="M220.13 307.496L224.054 281.09C224.079 280.921 224.236 280.805 224.405 280.83L240.521 283.225C240.69 283.25 240.806 283.407 240.781 283.576L236.857 309.982C236.832 310.151 236.675 310.267 236.506 310.242L220.39 307.847C220.221 307.822 220.105 307.665 220.13 307.496Z" fill="#E2755E"/>
<path d="M232.966 281.955C230.348 281.955 228.218 279.825 228.218 277.207C228.218 274.589 230.348 272.459 232.966 272.459C235.584 272.459 237.714 274.589 237.714 277.207C237.715 279.825 235.585 281.955 232.966 281.955ZM232.966 275.19C231.854 275.19 230.95 276.095 230.95 277.206C230.95 278.318 231.854 279.223 232.966 279.223C234.078 279.223 234.983 278.318 234.983 277.206C234.983 276.095 234.078 275.19 232.966 275.19Z" fill="#F9F3E8"/>
<path d="M233.537 276.822C233.364 276.822 233.191 276.789 233.027 276.723C232.665 276.577 232.383 276.284 232.251 275.917C224.036 253.012 234.255 215.415 234.694 213.826C234.895 213.098 235.649 212.673 236.374 212.873C237.101 213.074 237.528 213.826 237.327 214.553C237.224 214.925 227.391 251.11 234.284 273.381C238.995 270.143 255.498 256.57 276.109 214.304C276.44 213.626 277.257 213.344 277.935 213.675C278.613 214.005 278.895 214.823 278.564 215.501C253.68 266.53 234.931 276.288 234.144 276.679C233.954 276.774 233.746 276.822 233.537 276.822Z" fill="#F9F3E8"/>
<path d="M237.49 206.346C237.49 206.346 222.839 209.292 222.22 196.955C221.952 191.615 221.232 192.45 216.563 187.948C211.894 183.446 211.894 181.612 212.894 177.443C213.894 173.274 218.099 171.842 216.021 167.989C213.284 162.915 214.123 154.242 220.071 150.861C225.821 147.593 226.468 147.636 226.468 144.285C226.468 139.908 231.013 132.854 240.39 133.587C248.456 134.217 247.203 130.292 252.919 128.544C263.566 125.288 268.725 134.509 272.394 134.843C276.062 135.177 282.41 135.239 285.632 140.114C289.628 146.161 286.098 151.095 291.1 151.595C296.103 152.096 301.105 156.431 300.938 160.933C300.771 165.435 298.103 169.271 299.937 171.272C301.771 173.273 302.482 185.124 295.08 187.392C284.965 190.491 295.08 205.466 276.477 205.188C259.758 204.94 237.49 206.346 237.49 206.346Z" fill="black"/>
<path d="M232.683 177.627C232.683 177.627 228.512 172.699 226.154 177.627C223.796 182.555 225.61 192.529 231.957 190.897L232.683 177.627Z" fill="black"/>
<path d="M222.566 188.717C223.044 189.403 223.602 190.032 224.237 190.584C226.658 192.688 230.221 193.674 235.051 192.37C235.051 192.37 242.195 186.422 236.878 171.902C236.878 171.902 229.828 168.246 224.528 171.815C223.944 172.205 223.379 172.687 222.85 173.272C222.524 173.627 222.212 174.024 221.917 174.46C219.53 177.974 219.558 184.439 222.566 188.717Z" fill="#7098FA"/>
<path d="M222.566 188.717C223.044 189.403 223.602 190.032 224.237 190.584C222.211 181.886 223.715 174.693 224.528 171.815C223.944 172.205 223.379 172.687 222.85 173.272C222.113 176.567 221.387 182.098 222.566 188.717Z" fill="#6369D3"/>
<path d="M242.762 202.919L242.208 216.339C242.208 216.339 249.926 228.244 271.312 214.026C267.261 209.503 267.108 200.899 268.745 195.687C268.745 195.687 267.171 196.246 264.617 197.762C264.118 198.059 263.518 198.247 262.913 198.502C257.569 200.745 249.529 203.443 242.762 202.919Z" fill="#B96359"/>
<path d="M242.762 202.919L242.5 209.281C248.313 207.987 258.769 204.816 264.618 197.762C264.088 197.999 263.519 198.247 262.914 198.502C257.569 200.745 249.529 203.443 242.762 202.919Z" fill="#A34A43"/>
<path d="M269.372 192.573C269.185 193.611 268.974 194.661 268.74 195.719C268.74 195.719 268.732 195.723 268.72 195.731C267.904 196.188 242.56 210.284 231.141 198.475C228.885 196.137 228.237 190.99 228.089 181.596C228.07 180.343 228.058 179.016 228.054 177.611C228.05 176.315 228.05 174.953 228.054 173.521C228.093 161.583 232.171 153.204 238.65 151.206C242.947 149.883 250.093 146.378 258.066 149.282C265.754 152.088 270.621 159.698 270.195 167.874C271.089 175.628 270.988 183.788 269.372 192.573Z" fill="#B96359"/>
<path d="M235.593 162.663C235.593 162.663 237.963 162.897 237.13 165.069C236.298 167.241 231.544 164.848 228.142 168.849C228.142 168.849 226.696 163.639 235.593 162.663Z" fill="black"/>
<path d="M246.331 162.663C246.331 162.663 243.962 162.897 244.794 165.069C245.626 167.241 250.38 164.848 253.782 168.849C253.782 168.849 255.228 163.639 246.331 162.663Z" fill="black"/>
<path d="M247.093 179.602C247.093 180.708 249.37 181.604 252.178 181.604C254.987 181.604 257.263 180.708 257.263 179.602C257.263 178.497 254.986 177.601 252.178 177.601C249.369 177.601 247.093 178.497 247.093 179.602Z" fill="#A34A43"/>
<path d="M232.683 179.6C232.683 180.642 230.665 181.501 228.089 181.594C228.07 180.341 228.058 179.014 228.054 177.609C230.646 177.696 232.683 178.558 232.683 179.6Z" fill="#A34A43"/>
<path d="M246.166 173.518C246.166 175.036 246.855 176.267 247.704 176.267C248.553 176.267 249.242 175.036 249.242 173.518C249.242 172 248.553 170.769 247.704 170.769C246.855 170.769 246.166 172 246.166 173.518Z" fill="black"/>
<path d="M231.145 173.518C231.145 175.036 231.834 176.267 232.683 176.267C233.533 176.267 234.221 175.036 234.221 173.518C234.221 172 233.532 170.769 232.683 170.769C231.833 170.769 231.145 172 231.145 173.518Z" fill="black"/>
<path d="M238.463 188.003C236.711 188.003 234.861 187.438 233.184 185.799C232.937 185.558 232.933 185.162 233.174 184.916C233.416 184.669 233.811 184.665 234.057 184.906C238.625 189.371 244.711 184.469 244.968 184.258C245.234 184.04 245.628 184.078 245.847 184.344C246.066 184.61 246.028 185.003 245.762 185.223C245.713 185.262 242.323 188.003 238.463 188.003Z" fill="black"/>
<path d="M237.911 179.309C237.183 179.309 236.691 179.187 236.649 179.176C236.48 179.133 236.336 179.02 236.254 178.866C236.171 178.712 236.157 178.53 236.215 178.365L238.526 171.743C238.64 171.417 238.996 171.246 239.322 171.359C239.648 171.473 239.819 171.829 239.706 172.155L237.648 178.051C238.275 178.082 239.247 178.016 240.206 177.5C240.51 177.337 240.889 177.451 241.052 177.754C241.215 178.058 241.102 178.437 240.798 178.6C239.742 179.168 238.691 179.309 237.911 179.309Z" fill="black"/>
<path d="M266.56 179.026C266.56 179.026 272.631 170.872 277.078 177.28C280.743 182.56 273.814 196.322 266.56 191.606V179.026Z" fill="#B96359"/>
<path d="M272.852 188.841C272.852 189.692 272.163 190.381 271.312 190.381C270.461 190.381 269.772 189.691 269.772 188.841C269.772 187.991 270.461 187.301 271.312 187.301C272.163 187.3 272.852 187.99 272.852 188.841Z" fill="#F9F3E8"/>
<path d="M267.39 189.151C267.367 189.151 267.344 189.15 267.322 189.147C266.979 189.109 266.731 188.801 266.769 188.458C267.528 181.523 273.364 179.121 273.612 179.022C273.933 178.894 274.296 179.051 274.424 179.371C274.552 179.691 274.396 180.054 274.076 180.182C273.856 180.271 268.686 182.422 268.011 188.594C267.975 188.914 267.705 189.151 267.39 189.151Z" fill="black"/>
<path d="M273.219 185.364C273.081 185.364 272.942 185.318 272.826 185.224C272.283 184.784 270.635 183.702 269.559 183.978C269.224 184.063 268.884 183.862 268.799 183.528C268.713 183.194 268.915 182.853 269.249 182.768C271.127 182.288 273.365 184.052 273.615 184.255C273.882 184.472 273.923 184.866 273.705 185.134C273.581 185.285 273.401 185.364 273.219 185.364Z" fill="black"/>
<path d="M271.441 159.753C271.441 159.753 263.131 167.332 259.632 165.458C256.134 163.584 261.786 156.713 261.786 156.713C261.786 156.713 249.473 163.383 244.745 161.235C240.017 159.087 248.498 153.34 248.498 153.34C248.498 153.34 239.1 161.702 233.749 161.207C228.398 160.712 233.749 153.965 233.749 153.965C233.749 153.965 228.856 163.427 225.627 162.614C222.399 161.8 226.733 148.218 237.436 143.595C248.138 138.972 275.378 139.805 271.441 159.753Z" fill="black"/>
<path d="M264.182 162.631C264.182 162.631 261.448 179.968 265.816 180.046C270.184 180.125 274.582 173.375 271.441 159.752L264.182 162.631Z" fill="black"/>
<path d="M219.906 174.127L227.985 174.409V175.531C227.98 175.531 227.975 175.531 227.969 175.531L219.866 175.248C219.557 175.237 219.315 174.978 219.326 174.668C219.337 174.359 219.584 174.106 219.906 174.127Z" fill="#F9F3E8"/>
<path d="M240.666 173.803C240.666 168.581 244.915 164.332 250.137 164.332C255.359 164.332 259.608 168.58 259.608 173.803C259.608 179.025 255.359 183.274 250.137 183.274C244.915 183.274 240.666 179.025 240.666 173.803ZM241.788 173.803C241.788 178.407 245.534 182.152 250.138 182.152C254.742 182.152 258.488 178.406 258.488 173.803C258.488 169.199 254.742 165.453 250.138 165.453C245.533 165.453 241.788 169.199 241.788 173.803Z" fill="#F9F3E8"/>
<path d="M218.298 173.803C218.298 168.581 222.547 164.332 227.769 164.332C232.991 164.332 237.24 168.58 237.24 173.803C237.24 179.025 232.991 183.274 227.769 183.274C222.547 183.274 218.298 179.025 218.298 173.803ZM219.42 173.803C219.42 178.407 223.166 182.152 227.77 182.152C232.374 182.152 236.12 178.406 236.12 173.803C236.12 169.199 232.374 165.453 227.77 165.453C223.165 165.453 219.42 169.199 219.42 173.803Z" fill="#F9F3E8"/>
<path d="M270.752 175.775C270.819 175.775 270.886 175.763 270.952 175.738C271.241 175.627 271.386 175.303 271.275 175.014C268.78 168.49 258.848 171.831 258.749 171.866C258.456 171.967 258.301 172.286 258.402 172.579C258.503 172.871 258.821 173.027 259.114 172.926C259.204 172.895 268.119 169.902 270.228 175.415C270.313 175.638 270.526 175.775 270.752 175.775Z" fill="#F9F3E8"/>
<path d="M236.613 172.334C236.758 172.334 236.902 172.278 237.012 172.167C238.567 170.59 240.922 171.928 240.945 171.942C241.213 172.097 241.556 172.006 241.711 171.739C241.867 171.471 241.775 171.128 241.508 170.973C240.432 170.349 237.941 169.63 236.214 171.38C235.997 171.6 235.999 171.955 236.219 172.173C236.329 172.28 236.471 172.334 236.613 172.334Z" fill="#F9F3E8"/>
<path d="M291.037 341.882C290.108 337.757 289.187 333.626 288.157 329.525C290.814 328.768 293.487 327.928 296.146 327.043C299.199 326.03 302.231 324.928 305.229 323.769C308.225 322.613 311.186 321.396 314.096 320.117C316.998 318.827 319.837 317.465 322.588 316.038C325.33 314.606 327.989 313.109 330.45 311.533C331.68 310.747 332.876 309.952 333.973 309.117C334.518 308.703 335.055 308.289 335.562 307.869C336.066 307.45 336.546 307.021 336.991 306.6C337.691 305.952 338.305 305.293 338.809 304.673C338.956 304.495 339.091 304.319 339.217 304.151L339.239 304.124L338.712 303.48L337.771 302.33C337.28 301.731 336.796 301.13 336.265 300.518C335.22 299.303 334.2 298.09 333.137 296.872L329.915 293.22C327.722 290.789 325.551 288.34 323.309 285.91L321.64 284.085L319.951 282.267L317.585 279.71L316.576 278.621L315.349 277.304L313.182 274.979L309.762 271.349C307.487 268.923 305.202 266.5 302.904 264.087L289.178 249.615L289.092 249.524C283.307 243.421 283.562 233.784 289.661 227.997C295.707 222.262 305.235 222.471 311.04 228.412L314.637 232.102L318.168 235.794C319.346 237.022 320.508 238.265 321.673 239.506C322.837 240.746 324.003 241.987 325.158 243.238C327.47 245.735 329.77 248.251 332.064 250.772L335.484 254.579L335.938 255.089L338.888 258.412C340.024 259.688 341.15 260.983 342.273 262.277L343.956 264.219L344.712 265.106L345.632 266.183C347.868 268.787 350.094 271.441 352.3 274.112L355.589 278.184C356.682 279.556 357.771 280.968 358.862 282.358C359.406 283.042 359.95 283.778 360.493 284.506L362.12 286.687L362.527 287.234L362.629 287.37L362.68 287.438L362.76 287.553L363.101 288.042C363.327 288.371 363.548 288.701 363.769 289.031C363.877 289.191 363.987 289.377 364.095 289.558L364.416 290.104C364.627 290.474 364.837 290.828 365.038 291.215C365.237 291.614 365.432 292.017 365.62 292.422L365.898 293.032C365.987 293.243 366.073 293.464 366.159 293.683C366.328 294.119 366.493 294.559 366.649 295.001C366.802 295.453 366.933 295.933 367.063 296.401C367.192 296.874 367.317 297.34 367.409 297.842C367.506 298.335 367.594 298.831 367.672 299.326C367.744 299.825 367.787 300.339 367.831 300.845L367.884 301.606C367.898 301.86 367.894 302.115 367.899 302.372C367.9 302.882 367.894 303.393 367.877 303.899C367.841 304.4 367.796 304.902 367.74 305.4C367.71 305.648 367.685 305.901 367.647 306.144L367.519 306.867C367.18 308.819 366.592 310.566 365.924 312.187C365.578 312.961 365.212 313.76 364.822 314.444C364.626 314.794 364.431 315.153 364.227 315.49L363.613 316.458C361.947 319.001 360.152 320.932 358.386 322.603C356.614 324.271 354.841 325.647 353.105 326.904C352.234 327.536 351.365 328.113 350.502 328.677C349.642 329.244 348.786 329.777 347.931 330.294C346.217 331.315 344.529 332.266 342.836 333.154C339.457 334.934 336.093 336.465 332.73 337.882C329.367 339.288 326.005 340.562 322.643 341.744C319.285 342.941 315.921 344.048 312.549 345.079C309.175 346.113 305.789 347.061 302.389 347.979C299.263 348.814 297.162 349.343 293.962 350.069C293.335 347.26 291.67 344.69 291.037 341.882Z" fill="#7098FA"/>
<path d="M301.907 264.601C301.695 264.601 301.482 264.527 301.31 264.377L283.454 248.76C283.076 248.43 283.038 247.856 283.368 247.479C283.698 247.101 284.272 247.063 284.649 247.393L302.505 263.01C302.883 263.34 302.921 263.914 302.591 264.291C302.411 264.496 302.16 264.601 301.907 264.601Z" fill="black"/>
<path d="M289.753 253.828H283.445C282.943 253.828 282.537 253.421 282.537 252.92C282.537 252.418 282.943 252.012 283.445 252.012H289.753C290.255 252.012 290.661 252.419 290.661 252.92C290.661 253.421 290.255 253.828 289.753 253.828Z" fill="black"/>
<path d="M355.757 307.146C355.671 307.275 355.543 307.36 355.404 307.395C355.247 307.434 355.077 307.409 354.933 307.313C350.401 304.322 342.64 304.412 338.808 304.675C338.955 304.497 339.09 304.321 339.216 304.153L339.238 304.126L338.711 303.482C339.058 303.457 339.437 303.433 339.844 303.413C342.118 300.972 348.456 298.373 348.732 298.261C349.037 298.136 349.384 298.281 349.506 298.587C349.63 298.892 349.485 299.237 349.18 299.361C349.122 299.385 344.295 301.364 341.692 303.357C345.921 303.305 351.737 303.781 355.587 306.323C355.863 306.502 355.939 306.87 355.757 307.146Z" fill="black"/>
<path d="M297.708 330.232C297.708 330.232 294.637 324.58 293.494 318.929C292.587 314.449 289.837 313.177 289.837 313.177C289.467 316.361 289.476 319.893 290.153 324.038C290.153 324.038 289.627 322.445 287.103 323.103C284.578 323.761 274.432 326.509 274.433 328.548C274.435 333.211 285.344 330.385 285.344 330.385C285.344 330.385 273.662 333.27 274.142 336.511C274.53 339.133 285.251 339.036 285.251 339.036C285.251 339.036 274.952 339.707 276.395 343.336C277.929 347.193 287.349 344.182 287.349 344.182C287.349 344.182 280.648 347.872 281.391 349.222C282.461 351.166 286.572 351.5 293.079 349.523C299.74 347.5 297.708 330.232 297.708 330.232Z" fill="#B96359"/>
<path d="M207.762 294.691C207.492 294.691 207.224 294.571 207.045 294.341C196.503 280.812 200.232 272.48 202.955 266.396C203.467 265.253 203.95 264.174 204.307 263.144C206.759 256.082 212.249 235.223 212.304 235.013C212.432 234.528 212.93 234.24 213.413 234.366C213.898 234.494 214.188 234.99 214.06 235.475C214.005 235.685 208.497 256.612 206.022 263.74C205.639 264.845 205.14 265.959 204.612 267.138C201.936 273.117 198.605 280.557 208.477 293.225C208.785 293.621 208.715 294.191 208.319 294.499C208.153 294.628 207.957 294.691 207.762 294.691Z" fill="black"/>
<path d="M265.179 193.953C268.931 195.647 272.08 195.673 274.601 194.688C275.003 194.529 275.389 194.345 275.761 194.139C281.237 191.081 283.14 182.944 281.007 178.373C280.255 176.756 279.253 175.58 278.131 174.74C277.791 174.479 277.441 174.254 277.08 174.056C272.499 171.529 266.645 173.455 266.645 173.455C259.079 186.941 265.179 193.953 265.179 193.953Z" fill="#7098FA"/>
<path d="M250.047 194.461C261.03 195.576 267.742 189.509 268.055 189.219C268.309 188.984 268.324 188.588 268.089 188.334C267.854 188.08 267.458 188.065 267.204 188.299C267.102 188.392 258.924 195.732 246.194 192.506C245.857 192.422 245.518 192.624 245.433 192.959C245.348 193.294 245.551 193.635 245.886 193.72C247.333 194.087 248.722 194.326 250.047 194.461Z" fill="#F9F3E8"/>
<path d="M242.578 192.51C242.466 193.611 243.268 194.594 244.369 194.706C245.47 194.818 246.453 194.016 246.565 192.915C246.677 191.814 245.875 190.831 244.774 190.719C243.673 190.608 242.69 191.409 242.578 192.51Z" fill="black"/>
<path d="M232.683 152.239C234.314 150.271 236.32 148.668 238.559 147.483C241.52 145.145 245.253 144.036 249.694 144.184C253.104 144.301 256.122 145.054 258.723 146.431C260.535 147.394 262.146 148.656 263.546 150.224C264.608 151.412 265.508 152.725 266.265 154.104C267.321 156.026 268.1 158.077 268.679 160.104C269.136 161.724 269.466 163.33 269.698 164.843C270.477 169.906 270.19 173.93 270.185 174.005L271.753 174.127C271.779 173.785 272.095 169.357 271.169 163.907C270.347 159.085 268.552 153.459 264.717 149.176C264.635 149.088 264.557 148.997 264.475 148.911C260.793 144.936 255.836 142.817 249.751 142.615C243.924 142.42 239.194 144.233 235.687 147.999C234.502 149.273 233.509 150.709 232.683 152.239Z" fill="#F9F3E8"/>
<path d="M274.601 194.689C275.003 194.53 275.389 194.346 275.761 194.14C273.686 185.215 276.278 178.257 278.131 174.741C277.791 174.48 277.441 174.255 277.08 174.057C275.107 177.779 272.314 185.206 274.601 194.689Z" fill="#6369D3"/>
</g>
<path d="M96.3292 369.876L98.4588 387.495L96.3941 387.745L85.1208 375.071L84.9487 375.092L86.6208 388.926L84.4872 389.184L82.3576 371.565L84.4223 371.315L95.7342 384.019L95.9063 383.998L94.23 370.13L96.3292 369.876ZM102.728 386.979L100.598 369.36L111.232 368.075L111.461 369.967L102.961 370.995L103.68 376.948L111.63 375.987L111.859 377.88L103.909 378.841L104.633 384.829L113.271 383.785L113.499 385.677L102.728 386.979ZM120.408 384.842L113.46 367.805L115.628 367.543L121.045 381.448L121.217 381.428L123.234 366.624L125.642 366.333L131.128 380.23L131.3 380.209L133.248 365.414L135.416 365.152L132.728 383.353L130.525 383.619L124.939 370.049L124.802 370.066L122.61 384.576L120.408 384.842ZM148.242 368.07C148.033 367.211 147.533 366.585 146.741 366.192C145.948 365.799 145.019 365.667 143.952 365.796C143.172 365.89 142.505 366.099 141.95 366.422C141.401 366.744 140.99 367.146 140.717 367.627C140.449 368.108 140.349 368.629 140.417 369.191C140.474 369.661 140.634 370.052 140.899 370.363C141.168 370.668 141.495 370.911 141.877 371.092C142.259 371.267 142.654 371.402 143.061 371.499C143.468 371.589 143.84 371.658 144.177 371.704L146.025 371.97C146.498 372.035 147.029 372.139 147.617 372.284C148.21 372.427 148.787 372.651 149.348 372.956C149.913 373.254 150.399 373.667 150.806 374.194C151.214 374.721 151.467 375.397 151.567 376.223C151.682 377.175 151.536 378.065 151.13 378.894C150.73 379.722 150.081 380.421 149.184 380.989C148.292 381.556 147.17 381.922 145.816 382.085C144.554 382.238 143.437 382.166 142.464 381.871C141.497 381.575 140.706 381.094 140.09 380.429C139.48 379.764 139.083 378.954 138.898 377.999L141.1 377.732C141.238 378.391 141.528 378.914 141.971 379.303C142.418 379.685 142.956 379.946 143.584 380.086C144.217 380.219 144.883 380.243 145.583 380.158C146.397 380.06 147.113 379.84 147.729 379.497C148.345 379.15 148.813 378.715 149.134 378.193C149.454 377.665 149.575 377.08 149.498 376.438C149.427 375.853 149.206 375.397 148.835 375.069C148.464 374.742 147.997 374.495 147.436 374.33C146.875 374.165 146.274 374.034 145.634 373.937L143.391 373.58C141.967 373.35 140.809 372.917 139.917 372.28C139.026 371.643 138.508 370.731 138.364 369.544C138.245 368.557 138.408 367.665 138.853 366.866C139.302 366.061 139.956 365.4 140.813 364.883C141.675 364.36 142.668 364.031 143.792 363.895C144.927 363.757 145.962 363.839 146.894 364.14C147.826 364.434 148.592 364.9 149.193 365.538C149.799 366.174 150.171 366.935 150.307 367.821L148.242 368.07Z" fill="#A03C62"/>
</g>
<defs>
<clipPath id="clip0_518_144">
<rect width="500" height="500" fill="white"/>
</clipPath>
</defs>
</svg>
